{"title":"Ajab Prem Ebong (2011)  -  Bengali  -  DVD Rip","uid":7028492,"size":732912195,"categoryP":"video","categoryS":"movies","magnet":"?xt=urn:btih:a19077a358253af39ff634b811b811eac7f5d3b0&amp;dn=Ajab+Prem+Ebong+%282011%29++-++Bengali++-++DVD+Rip&amp;tr=udp%3A%2F%2Ftracker.openbittorrent.com%3A80&amp;tr=udp%3A%2F%2Fopen.demonii.com%3A1337&amp;tr=udp%3A%2F%2Ftracker.coppersurfer.tk%3A6969&amp;tr=udp%3A%2F%2Fexodus.desync.com%3A6969","seeders":0,"leechers":0,"uploader":null,"files":-1,"time":1329151782,"description":"Uploader's Note : No Extra Watermark ! Enjoy !\n\n\n\nScreen Link : ---\n\n\n &lt;a href=&quot;\nhttp://www.shotpix.com/images/99086359456493811783.jpg&quot; rel=&quot;nofollow&quot; target=&quot;_NEW&quot;&gt;\nhttp://www.shotpix.com/images/99086359456493811783.jpg&lt;/a&gt;\n\n\n\nExtra Screenshots : ---\n\n\n  &lt;a href=&quot;\nhttp://www.shotpix.com/images/05691259542941058740.jpg&quot; rel=&quot;nofollow&quot; target=&quot;_NEW&quot;&gt;\nhttp://www.shotpix.com/images/05691259542941058740.jpg&lt;/a&gt;\n  &lt;a href=&quot;\nhttp://www.shotpix.com/images/52928615629492605445.jpg&quot; rel=&quot;nofollow&quot; target=&quot;_NEW&quot;&gt;\nhttp://www.shotpix.com/images/52928615629492605445.jpg&lt;/a&gt;\n  &lt;a href=&quot;\nhttp://www.shotpix.com/images/44575256839997299041.jpg&quot; rel=&quot;nofollow&quot; target=&quot;_NEW&quot;&gt;\nhttp://www.shotpix.com/images/44575256839997299041.jpg&lt;/a&gt;\n  &lt;a href=&quot;\nhttp://www.shotpix.com/images/03038657117725612229.jpg&quot; rel=&quot;nofollow&quot; target=&quot;_NEW&quot;&gt;\nhttp://www.shotpix.com/images/03038657117725612229.jpg&lt;/a&gt;\n\n\n\nGeneral Info : ---\n\n\n\nFormat                           : AVI\nFormat/Info                      : Audio Video Interleave\nFile size                        : 699 MiB\nDuration                         : 2h 8mn\nOverall bit rate                 : 762 Kbps\n\nVideo\nID                               : 0\nFormat                           : MPEG-4 Visual\nFormat profile                   : Advanced Simple@L5\nFormat settings, BVOP            : 1\nFormat settings, QPel            : No\nFormat settings, GMC             : No warppoints\nFormat settings, Matrix          : Custom\nCodec ID                         : XVID\nCodec ID/Hint                    : XviD\nDuration                         : 2h 8mn\nBit rate                         : 645 Kbps\nWidth                            : 608 pixels\nHeight                           : 272 pixels\nDisplay aspect ratio             : 2.25:1\nFrame rate                       : 29.970 fps\nColor space                      : YUV\nChroma subsampling               : 4:2:0\nBit depth                        : 8 bits\nScan type                        : Progressive\nCompression mode                 : Lossy\nBits/(Pixel*Frame)               : 0.130\nStream size                      : 592 MiB (85%)\n\nAudio\nID                               : 1\nFormat                           : MPEG Audio\nFormat version                   : Version 1\nFormat profile                   : Layer 3\nMode                             : Joint stereo\nMode extension                   : MS Stereo\nCodec ID                         : 55\nCodec ID/Hint                    : MP3\nDuration                         : 2h 8mn\nBit rate mode                    : Variable\nBit rate                         : 103 Kbps\nNominal bit rate                 : 128 Kbps\nChannel(s)                       : 2 channels\nSampling rate                    : 48.0 KHz\nCompression mode                 : Lossy\nStream size                      : 94.1 MiB (13%)\n\n\n\n","torrent":{"xt":"urn:btih:a19077a358253af39ff634b811b811eac7f5d3b0","amp;dn":"Ajab+Prem+Ebong+%282011%29++-++Bengali++-++DVD+Rip","amp;tr":["udp%3A%2F%2Ftracker.openbittorrent.com%3A80","udp%3A%2F%2Fopen.demonii.com%3A1337","udp%3A%2F%2Ftracker.coppersurfer.tk%3A6969","udp%3A%2F%2Fexodus.desync.com%3A6969"],"infoHash":"a19077a358253af39ff634b811b811eac7f5d3b0","infoHashBuffer":{"type":"Buffer","data":[161,144,119,163,88,37,58,243,159,246,52,184,17,184,17,234,199,245,211,176]},"announce":[],"urlList":[]}}